<svg height="512pt" viewBox="-66 0 512 512.00012" width="512pt" xmlns="http://www.w3.org/2000/svg"><path d="m372.394531 62.117188-29.089843-22.496094-45.453126-35.164063c-6.566406-5.078125-15.234374-5.875-22.617187-2.085937-7.382813 3.789062-11.785156 11.296875-11.484375 19.59375l1.085938 29.980468-70.59375 80.867188c-14.261719-2.136719-49.121094-3.386719-77.855469 27.5625-3.359375 3.621094-5.058594 8.53125-4.65625 13.464844.402343 4.96875 2.894531 9.574218 6.847656 12.648437l33.589844 25.976563h-115.148438c-20.414062 0-37.019531 16.613281-37.019531 37.03125v225.484375c0 20.414062 16.605469 37.019531 37.019531 37.019531h255.203125c20.414063 0 37.019532-16.605469 37.019532-37.019531v-225.484375c0-20.417969-16.605469-37.03125-37.019532-37.03125h-12.632812c-1.476563-7.554688-3.667969-13.695313-5.429688-17.847656l59.21875-88.3125 30.640625-6.78125c8.105469-1.796876 14.265625-7.941407 16.078125-16.042969 1.8125-8.097657-1.140625-16.285157-7.703125-21.363281zm-96.449219 7.511718 33.25 25.722656 4.90625 3.792969-53.746093 80.148438-47.835938-37zm-82.285156 83.359375 61.128906 47.289063c1.597657 3.328125 5.164063 11.828125 6.1875 23.085937.070313.796875.121094 1.585938.167969 2.378907.25 4.542968.054688 9.023437-.597656 13.421874-1.277344 8.613282-4.285156 16.929688-9.003906 24.875l-57.957031-44.824218-12.859376-9.945313c-.007812-.011719-.019531-.015625-.03125-.027343l-47.921874-37.0625c24.363281-24.609376 53.527343-20.679688 60.886718-19.191407zm-39.582031 112.492188 22.277344-33.015625h1.671875l4.886718 3.78125-27.035156 30.628906zm155.164063-15.984375v225.484375c0 9.386719-7.632813 17.019531-17.019532 17.019531h-255.203125c-9.386719 0-17.019531-7.632812-17.019531-17.019531v-225.484375c0-9.390625 7.632812-17.03125 17.019531-17.03125h115.210938l-14.003907 20.753906-3.628906-2.808594c-4.367187-3.378906-10.648437-2.574218-14.027344 1.792969-3.378906 4.367187-2.578124 10.648437 1.792969 14.027344l12.0625 9.332031s.003907.003906.003907.003906l16.628906 12.859375c0 .003907.003906.003907.003906.007813l11.828125 9.148437c1.824219 1.40625 3.976563 2.089844 6.113281 2.089844 2.988282 0 5.945313-1.335937 7.917969-3.882813 3.378906-4.367187 2.574219-10.648437-1.792969-14.027343l-3.398437-2.625 27.039062-30.628907 42.492188 32.863282c.449219.351562.917969.667968 1.398437.96875.148438.09375.300782.179687.453125.269531.339844.199219.6875.390625 1.039063.570313.175781.085937.347656.171874.527344.253906.359374.167968.726562.320312 1.097656.460937.160156.0625.3125.128907.472656.183594.527344.1875 1.058594.351563 1.597656.484375.066406.015625.132813.027344.199219.042969.476563.113281.957031.207031 1.445313.28125.183593.027343.371093.046875.558593.066406.378907.046875.757813.082031 1.136719.101563.199219.011718.398438.023437.601562.027343.128907.003907.253907.015625.382813.015625.257813 0 .515625-.023437.773437-.035156.1875-.007812.378907-.007812.566407-.023438.570312-.042968 1.136719-.105468 1.699219-.203124.613281-.105469 1.214843-.246094 1.804687-.414063 4.140625-1.175781 7.746094-3.835937 10.070313-7.484375.625-.980469 1.226562-1.96875 1.8125-2.960938.1875-.316406.363281-.632812.546874-.949218.394532-.6875.785157-1.382813 1.160157-2.074219.199219-.359375.390625-.722656.578125-1.082031.359375-.679688.703125-1.359375 1.042968-2.042969.171876-.34375.34375-.691406.511719-1.035156.390625-.816407.765625-1.636719 1.128907-2.457031.089843-.203126.1875-.40625.277343-.609376.445313-1.023437.867188-2.050781 1.269531-3.085937.109376-.277344.210938-.5625.316407-.84375.289062-.757813.570312-1.523437.832031-2.289063.128906-.363281.25-.730468.371094-1.097656.234375-.703125.457031-1.40625.671875-2.113281.113281-.371094.226562-.738281.332031-1.109375.222656-.773438.429688-1.546875.632812-2.328125.074219-.285156.15625-.574219.226563-.863281.261719-1.0625.507813-2.132813.726563-3.207032.039062-.179687.066406-.363281.105468-.542968.175782-.894532.339844-1.792969.488282-2.691406.058593-.355469.113281-.710938.164062-1.0625.113281-.746094.21875-1.492188.3125-2.238282.046875-.378906.09375-.761718.136719-1.140625.082031-.769531.15625-1.539062.21875-2.3125.03125-.332031.0625-.664062.085937-1 .078125-1.09375.140625-2.1875.175782-3.289062 0-.003907.003906-.007813.003906-.015625 0-.007813 0-.015625 0-.023438h11.011718c9.382813-.007812 17.015626 7.632813 17.015626 17.023438zm51.339843-170.382813c-.164062.722657-.652343.832031-.886719.882813l-29.28125 6.480468-45.59375-35.265624-1.082031-29.972657c-.007812-.238281-.027343-.738281.632813-1.078125.65625-.335937 1.054687-.03125 1.242187.117188l74.542969 57.660156c.191406.148438.585938.453125.425781 1.175781zm0 0"/><path d="m238.976562 312.648438h-151.296874c-5.519532 0-10 4.476562-10 10 0 5.523437 4.480468 10 10 10h151.296874c5.523438 0 10-4.476563 10-10 0-5.523438-4.476562-10-10-10zm0 0"/><path d="m238.976562 371.882812h-.023437c-5.523437 0-9.988281 4.476563-9.988281 10 0 5.523438 4.488281 10 10.011718 10 5.523438 0 10-4.476562 10-10 0-5.523437-4.476562-10-10-10zm0 0"/><path d="m87.679688 391.882812h111.296874c5.523438 0 10-4.476562 10-10 0-5.523437-4.476562-10-10-10h-111.296874c-5.523438 0-10 4.476563-10 10 0 5.523438 4.476562 10 10 10zm0 0"/><path d="m238.976562 431.117188h-151.296874c-5.519532 0-10 4.480468-10 10 0 5.523437 4.480468 10 10 10h151.296874c5.523438 0 10-4.476563 10-10 0-5.519532-4.476562-10-10-10zm0 0"/></svg>